# xmcd
#
# Track frame offsets:
#	150
#	15852
#	35344
#	60200
#	76412
#	92913
#	113605
#	132732
#	160075
#	179165
#	226207
#
# Disc length: 3149 seconds
#
# Revision: 1
# Processed by: cddbd v1.5.2PL0 Copyright (c) Steve Scherf et al.
# Submitted via: audiograbber 1.83.01
#
DISCID=7f0c4b0b
DTITLE=Michael Cassidy - Trying to Connect with You
DYEAR=2002
DGENRE=
TTITLE0=Looking for the Bliss
TTITLE1=Day of Redemption
TTITLE2=The Love I Lost
TTITLE3=Loved by You
TTITLE4=Room in this House
TTITLE5=Humble Abode
TTITLE6=Maya's Maya
TTITLE7=Driftin'
TTITLE8=No More Good-byes
TTITLE9=Tryin' to Connect with You
TTITLE10=HK Kirtan
EXTD=
EXTT0=
EXTT1=
EXTT2=
EXTT3=
EXTT4=
EXTT5=
EXTT6=
EXTT7=
EXTT8=
EXTT9=
EXTT10=
PLAYORDER=
